HIERARCHY
ROOT __0
{
	OFFSET 0.0 0.0 0.0
	CHANNELS 0
	JOINT L.Front4.001
	{
		OFFSET 1.929587 -2.733208 0.189860
		CHANNELS 6 Xposition Yposition Zposition Xrotation Yrotation Zrotation
		End Site
		{
			OFFSET 0.245899 0.237053 0.067546
		}
	}
	JOINT R.Front4.001
	{
		OFFSET -1.937842 -2.733208 0.189860
		CHANNELS 6 Xposition Yposition Zposition Xrotation Yrotation Zrotation
		End Site
		{
			OFFSET -0.021871 0.273267 0.138085
		}
	}
	JOINT L.Middle1.Toe
	{
		OFFSET 2.288333 -1.935753 0.148531
		CHANNELS 6 Xposition Yposition Zposition Xrotation Yrotation Zrotation
		End Site
		{
			OFFSET 0.195655 0.259872 0.124131
		}
	}
	JOINT L.Middle2.Toe
	{
		OFFSET 2.252073 -0.716998 0.202522
		CHANNELS 6 Xposition Yposition Zposition Xrotation Yrotation Zrotation
		End Site
		{
			OFFSET -0.078907 0.336544 0.041655
		}
	}
	JOINT L.Back.Toe
	{
		OFFSET 1.577923 0.432030 0.166858
		CHANNELS 6 Xposition Yposition Zposition Xrotation Yrotation Zrotation
		End Site
		{
			OFFSET -0.005419 0.422882 -0.008072
		}
	}
	JOINT R.Middle2.Toe
	{
		OFFSET -2.251575 -0.716998 0.202522
		CHANNELS 6 Xposition Yposition Zposition Xrotation Yrotation Zrotation
		End Site
		{
			OFFSET 0.078907 0.336544 0.041655
		}
	}
	JOINT R.Back.Toe
	{
		OFFSET -1.577426 0.432030 0.166858
		CHANNELS 6 Xposition Yposition Zposition Xrotation Yrotation Zrotation
		End Site
		{
			OFFSET 0.005419 0.422882 -0.008072
		}
	}
	JOINT R.Middle1.Toe
	{
		OFFSET -2.300058 -1.935753 0.148531
		CHANNELS 6 Xposition Yposition Zposition Xrotation Yrotation Zrotation
		End Site
		{
			OFFSET -0.195655 0.259872 0.124131
		}
	}
	JOINT Bone.001
	{
		OFFSET -0.028629 -1.013594 0.927524
		CHANNELS 6 Xposition Yposition Zposition Xrotation Yrotation Zrotation
		JOINT L.Front1
		{
			OFFSET 0.322803 -0.947996 -0.074401
			CHANNELS 3 Xrotation Yrotation Zrotation
			JOINT L.Front2
			{
				OFFSET 0.412438 -0.201154 0.179315
				CHANNELS 3 Xrotation Yrotation Zrotation
				JOINT L.Front3
				{
					OFFSET 0.489759 -0.255672 -0.021676
					CHANNELS 3 Xrotation Yrotation Zrotation
					JOINT L.Front4
					{
						OFFSET 0.431561 -0.174861 -0.253092
						CHANNELS 3 Xrotation Yrotation Zrotation
						End Site
						{
							OFFSET 0.301655 -0.139931 -0.567811
						}
					}
				}
			}
		}
		JOINT R.Front1
		{
			OFFSET -0.273800 -0.947996 -0.074401
			CHANNELS 3 Xrotation Yrotation Zrotation
			JOINT R.Front2
			{
				OFFSET -0.412438 -0.201154 0.179315
				CHANNELS 3 Xrotation Yrotation Zrotation
				JOINT R.Front3
				{
					OFFSET -0.489759 -0.255672 -0.021676
					CHANNELS 3 Xrotation Yrotation Zrotation
					JOINT R.Front4
					{
						OFFSET -0.431561 -0.174861 -0.253092
						CHANNELS 3 Xrotation Yrotation Zrotation
						End Site
						{
							OFFSET -0.301655 -0.139931 -0.567811
						}
					}
				}
			}
		}
		JOINT L.Middle1.1
		{
			OFFSET 0.345717 -0.776648 -0.035912
			CHANNELS 3 Xrotation Yrotation Zrotation
			JOINT L.Middle1.2
			{
				OFFSET 0.578869 -0.050538 0.203721
				CHANNELS 3 Xrotation Yrotation Zrotation
				JOINT L.Middle1.3
				{
					OFFSET 0.565016 -0.071623 -0.076658
					CHANNELS 3 Xrotation Yrotation Zrotation
					JOINT L.Middle1.4
					{
						OFFSET 0.346243 -0.028014 -0.278647
						CHANNELS 3 Xrotation Yrotation Zrotation
						End Site
						{
							OFFSET 0.445184 -0.012394 -0.534512
						}
					}
				}
			}
		}
		JOINT L.Middle2.1
		{
			OFFSET 0.371706 -0.553442 -0.014569
			CHANNELS 3 Xrotation Yrotation Zrotation
			JOINT L.Middle2.2
			{
				OFFSET 0.595191 0.210461 0.200411
				CHANNELS 3 Xrotation Yrotation Zrotation
				JOINT L.Middle2.3
				{
					OFFSET 0.570414 0.267667 -0.102495
					CHANNELS 3 Xrotation Yrotation Zrotation
					JOINT L.Middle2.4
					{
						OFFSET 0.409513 0.164286 -0.384859
						CHANNELS 3 Xrotation Yrotation Zrotation
						End Site
						{
							OFFSET 0.293031 0.194129 -0.471125
						}
					}
				}
			}
		}
		JOINT L.Back.1
		{
			OFFSET 0.339458 -0.253729 0.029140
			CHANNELS 3 Xrotation Yrotation Zrotation
			JOINT L.Back.2
			{
				OFFSET 0.403377 0.479789 0.173875
				CHANNELS 3 Xrotation Yrotation Zrotation
				JOINT L.Back.3
				{
					OFFSET 0.396220 0.522969 -0.100497
					CHANNELS 3 Xrotation Yrotation Zrotation
					JOINT L.Back.4
					{
						OFFSET 0.245346 0.322652 -0.343475
						CHANNELS 3 Xrotation Yrotation Zrotation
						End Site
						{
							OFFSET 0.237017 0.351391 -0.502747
						}
					}
				}
			}
		}
		JOINT R.Middle2.1
		{
			OFFSET -0.313951 -0.553442 -0.014569
			CHANNELS 3 Xrotation Yrotation Zrotation
			JOINT R.Middle2.2
			{
				OFFSET -0.595191 0.210461 0.200411
				CHANNELS 3 Xrotation Yrotation Zrotation
				JOINT R.Middle2.3
				{
					OFFSET -0.570414 0.267667 -0.102495
					CHANNELS 3 Xrotation Yrotation Zrotation
					JOINT R.Middle2.4
					{
						OFFSET -0.409513 0.164286 -0.384859
						CHANNELS 3 Xrotation Yrotation Zrotation
						End Site
						{
							OFFSET -0.293031 0.194129 -0.471125
						}
					}
				}
			}
		}
		JOINT R.Back.1
		{
			OFFSET -0.313309 -0.306900 -0.000670
			CHANNELS 3 Xrotation Yrotation Zrotation
			JOINT R.Back.2
			{
				OFFSET -0.403377 0.479789 0.173874
				CHANNELS 3 Xrotation Yrotation Zrotation
				JOINT R.Back.3
				{
					OFFSET -0.364614 0.576140 -0.070688
					CHANNELS 3 Xrotation Yrotation Zrotation
					JOINT R.Back.4
					{
						OFFSET -0.245346 0.322652 -0.343475
						CHANNELS 3 Xrotation Yrotation Zrotation
						End Site
						{
							OFFSET -0.237017 0.351391 -0.502747
						}
					}
				}
			}
		}
		JOINT R.Middle1.1
		{
			OFFSET -0.300184 -0.776648 -0.035912
			CHANNELS 3 Xrotation Yrotation Zrotation
			JOINT R.Middle1.2
			{
				OFFSET -0.578869 -0.050538 0.203721
				CHANNELS 3 Xrotation Yrotation Zrotation
				JOINT R.Middle1.3
				{
					OFFSET -0.565016 -0.071623 -0.076658
					CHANNELS 3 Xrotation Yrotation Zrotation
					JOINT R.Middle1.4
					{
						OFFSET -0.346243 -0.028014 -0.278647
						CHANNELS 3 Xrotation Yrotation Zrotation
						End Site
						{
							OFFSET -0.445184 -0.012394 -0.534512
						}
					}
				}
			}
		}
		JOINT Bone
		{
			OFFSET 0.000224 0.525838 0.010819
			CHANNELS 3 Xrotation Yrotation Zrotation
			End Site
			{
				OFFSET -0.000224 -0.525838 -0.010819
			}
		}
		JOINT Bone.002
		{
			OFFSET -0.016271 -0.626207 -0.079689
			CHANNELS 3 Xrotation Yrotation Zrotation
			End Site
			{
				OFFSET -0.043323 -0.396104 -0.038548
			}
		}
	}
}
MOTION
Frames: 7
Frame Time: 0.040000
0.729407 -3.179401 0.161156 0.000002 0.000001 -0.000001 -0.947222 -2.435408 0.248792 0.000001 -0.000001 -0.000000 1.425301 -1.849276 0.162487 0.000001 -0.000002 -0.000001 1.543487 -1.139778 0.169310 0.000000 0.000000 -0.000000 1.286947 0.201959 0.401329 0.000000 0.000000 0.000000 -1.086182 -1.019741 0.264379 0.000000 0.000000 -0.000000 -1.000991 -0.375486 0.317435 -0.000000 -0.000000 -0.000000 -1.105798 -2.168939 0.159749 -0.000001 0.000001 0.000000 -0.031172 -1.015944 0.929233 -0.000001 0.000000 0.000000 -10.010809 -2.588332 -15.299506 -3.707325 13.596813 -9.298739 1.675402 22.189560 -4.871308 2.876102 18.842436 -3.072931 -11.564440 17.107425 4.928058 3.790134 -13.158740 2.220310 17.046627 -34.735654 4.617080 15.893802 -32.522622 5.194457 -1.711903 -19.065922 -0.639440 1.134183 14.323288 0.018339 3.251105 30.965352 1.017473 2.610335 24.038006 1.289294 5.936517 -19.309232 -2.664280 -6.487102 12.823811 1.147407 -15.064312 28.055448 5.096791 -8.946554 19.265008 4.666146 16.576785 -11.675612 1.728096 -4.001311 4.377309 1.941407 -16.090321 12.903278 3.639250 -11.388660 9.518917 2.519918 11.734700 22.121888 -1.904814 -6.018519 -19.384777 -5.305376 -20.058297 -39.387860 -11.965204 -11.467129 -26.854554 -8.407386 21.652758 15.690813 -1.674590 -10.853475 -9.445572 -3.182769 -35.148898 -22.364415 -7.234510 -24.231174 -16.487023 -4.567819 -6.507128 17.815131 6.391876 -2.573802 -19.527284 3.122528 -0.058610 -37.694287 0.481527 0.539582 -28.762555 -0.033460 -0.000001 0.000000 0.000000 -0.000001 -0.000000 -0.000000 
0.729407 -3.179401 0.161156 0.000002 0.000001 -0.000001 -0.932914 -2.482400 0.280489 0.000001 -0.000001 -0.000000 1.419492 -1.872186 0.185617 0.000001 -0.000002 -0.000001 1.543487 -1.139778 0.169310 0.000000 0.000000 -0.000000 1.282589 0.175284 0.403906 0.000000 0.000000 0.000000 -1.095302 -1.046402 0.269915 0.000000 0.000000 -0.000000 -1.000991 -0.375486 0.317435 -0.000000 -0.000000 -0.000000 -1.105798 -2.168939 0.159749 -0.000001 0.000001 0.000000 -0.038870 -1.023321 0.934483 -0.000001 0.000000 0.000000 -9.930064 -2.608766 -15.107023 -3.587918 13.564420 -9.212900 1.800724 22.184104 -4.848853 2.958897 18.852997 -3.063364 -12.756533 17.659948 5.901288 3.062956 -13.159660 2.667931 16.786124 -35.361484 4.983225 15.881791 -33.249900 5.501534 -1.998256 -19.874302 -0.921973 0.964556 14.178537 -0.131585 3.161082 31.317350 0.939675 2.561984 24.390834 1.244910 5.870805 -18.981103 -2.617054 -6.395596 12.716446 1.152909 -14.794692 27.696514 4.974323 -8.785475 19.002360 4.583055 16.748478 -11.969817 1.607863 -4.229483 4.437477 1.822158 -16.586717 13.148324 3.662041 -11.738563 9.706917 2.543941 11.525224 22.349228 -1.630002 -6.274651 -19.424269 -5.167687 -20.449699 -39.564164 -12.026250 -11.679035 -26.986940 -8.428607 21.534232 15.435847 -1.741845 -10.820544 -9.538392 -3.302351 -34.949429 -22.352510 -7.278795 -24.078218 -16.460821 -4.589722 -6.373281 17.578624 6.278404 -2.485992 -19.718488 3.060451 0.006710 -37.792106 0.445146 0.580257 -28.797030 -0.059308 -0.000001 0.000000 0.000000 -0.000001 -0.000000 -0.000000 
0.729407 -3.179401 0.161156 0.000002 0.000001 -0.000001 -0.909390 -2.560461 0.331871 0.000001 -0.000001 -0.000000 1.409682 -1.910820 0.223372 0.000001 -0.000002 -0.000001 1.543487 -1.139778 0.169310 0.000000 0.000000 -0.000000 1.275460 0.130362 0.408154 0.000000 0.000000 0.000000 -1.110472 -1.091156 0.278874 0.000000 0.000000 -0.000000 -1.000991 -0.375486 0.317435 -0.000000 -0.000000 -0.000000 -1.105798 -2.168939 0.159749 -0.000001 0.000001 0.000000 -0.051561 -1.036086 0.943310 -0.000001 0.000000 0.000000 -9.792963 -2.642930 -14.783482 -3.385525 13.514819 -9.066283 2.013414 22.180846 -4.809124 3.099921 18.874734 -3.047017 -14.682526 18.374151 7.496040 1.817944 -13.148241 3.387868 16.184173 -36.210685 5.501415 15.711628 -34.260379 5.936784 -2.491136 -21.161572 -1.395132 0.677266 13.933981 -0.383314 3.002300 31.860551 0.806614 2.473544 24.941404 1.167024 5.761510 -18.423541 -2.531912 -6.240241 12.537277 1.166886 -14.342892 27.091131 4.775736 -8.514469 18.559480 4.445993 17.004253 -12.450432 1.412830 -4.608506 4.535433 1.615697 -17.396154 13.540449 3.689805 -12.309088 10.005606 2.577596 11.151364 22.694362 -1.164547 -6.704543 -19.482339 -4.936808 -21.083643 -39.824600 -12.112170 -12.021139 -27.181844 -8.452762 21.326841 15.005314 -1.856227 -10.759556 -9.687365 -3.501157 -34.595123 -22.321446 -7.344325 -23.808610 -16.408196 -4.621458 -6.141889 17.173542 6.080170 -2.332009 -20.036952 2.953495 0.122038 -37.944870 0.383610 0.651405 -28.844852 -0.103954 -0.000001 0.000000 0.000000 -0.000001 -0.000000 -0.000000 
0.729407 -3.179401 0.161156 0.000002 0.000001 -0.000001 -0.877920 -2.666317 0.399304 0.000001 -0.000001 -0.000000 1.396102 -1.964222 0.273388 0.000001 -0.000002 -0.000001 1.543487 -1.139778 0.169310 0.000000 0.000000 -0.000000 1.265988 0.068365 0.413855 0.000000 0.000000 0.000000 -1.131080 -1.152664 0.290600 0.000000 0.000000 -0.000000 -1.000991 -0.375486 0.317435 -0.000000 -0.000000 -0.000000 -1.105798 -2.168939 0.159749 -0.000001 0.000001 0.000000 -0.068596 -1.054291 0.955469 -0.000001 0.000000 0.000000 -9.599954 -2.688000 -14.338403 -3.104137 13.454547 -8.860061 2.308391 22.183990 -4.750319 3.296129 18.908810 -3.023493 -17.137387 18.966424 9.601136 0.082018 -13.109621 4.318178 15.046755 -36.986656 6.013812 15.186468 -35.235341 6.362825 -3.191868 -22.802549 -2.045145 0.276971 13.594712 -0.728834 2.769242 32.518445 0.620074 2.338465 25.620415 1.054097 5.611107 -17.643921 -2.404520 -6.024138 12.291910 1.194245 -13.723954 26.252025 4.515733 -8.141173 17.945987 4.261915 17.294683 -13.082766 1.151022 -5.125655 4.659409 1.328044 -18.465114 14.039823 3.714981 -13.060537 10.384244 2.613574 10.595676 23.097613 -0.515616 -7.294256 -19.544511 -4.619041 -21.910390 -40.115528 -12.197924 -12.465357 -27.398232 -8.463871 21.025086 14.409694 -2.016872 -10.665720 -9.878898 -3.770305 -34.072679 -22.257701 -7.417726 -23.414684 -16.319450 -4.655489 -5.812299 16.599293 5.793744 -2.108486 -20.469887 2.801846 0.290656 -38.131355 0.298589 0.754047 -28.889873 -0.167383 -0.000001 0.000000 0.000000 -0.000001 -0.000000 -0.000000 
0.729407 -3.179401 0.161156 0.000002 0.000001 -0.000001 -0.840868 -2.793248 0.476604 0.000001 -0.000001 -0.000000 1.379387 -2.029834 0.331474 0.000001 -0.000002 -0.000001 1.543487 -1.139778 0.169310 0.000000 0.000000 -0.000000 1.254946 -0.007681 0.420595 0.000000 0.000000 0.000000 -1.155844 -1.227712 0.303982 0.000000 0.000000 -0.000000 -1.000991 -0.375486 0.317435 -0.000000 -0.000000 -0.000000 -1.105798 -2.168939 0.159749 -0.000001 0.000001 0.000000 -0.088736 -1.077527 0.970337 -0.000001 0.000000 0.000000 -9.356657 -2.739194 -13.794380 -2.755701 13.393083 -8.601141 2.672239 22.198733 -4.672106 3.538990 18.955923 -2.993069 -19.732910 19.123362 11.957754 -2.015120 -13.038446 5.355219 13.251094 -37.354165 6.346559 14.131801 -35.792630 6.610149 -4.074837 -24.604932 -2.837830 -0.218320 13.182484 -1.147494 2.463226 33.190263 0.389939 2.154520 26.332135 0.909114 5.425611 -16.671670 -2.232307 -5.756582 11.992736 1.239999 -12.971686 25.216351 4.218062 -7.684643 17.189566 4.043756 17.558232 -13.807993 0.832806 -5.752670 4.793839 0.975310 -19.703588 14.589714 3.729469 -13.926793 10.799522 2.643409 9.859305 23.483104 0.285440 -8.013461 -19.599276 -4.234140 -22.842111 -40.365776 -12.246625 -12.962918 -27.581567 -8.441793 20.630496 13.678242 -2.219036 -10.535785 -10.091273 -4.091638 -33.380989 -22.146574 -7.481199 -22.898436 -16.185311 -4.681967 -5.393546 15.871623 5.422220 -1.817515 -20.989489 2.609575 0.511993 -38.320810 0.194376 0.886660 -28.911682 -0.247874 -0.000001 0.000000 0.000000 -0.000001 -0.000000 -0.000000 
0.729407 -3.179401 0.161156 0.000002 0.000001 -0.000001 -0.801542 -2.931383 0.555522 0.000001 -0.000001 -0.000000 1.360575 -2.103521 0.391909 0.000001 -0.000002 -0.000001 1.543487 -1.139778 0.169310 0.000000 0.000000 -0.000000 1.243396 -0.092932 0.427786 0.000000 0.000000 0.000000 -1.182867 -1.311270 0.317540 0.000000 0.000000 -0.000000 -1.000991 -0.375486 0.317435 -0.000000 -0.000000 -0.000000 -1.105798 -2.168939 0.159749 -0.000001 0.000001 0.000000 -0.110226 -1.104854 0.986932 -0.000001 0.000000 0.000000 -9.076089 -2.791710 -13.185923 -2.359831 13.342064 -8.302989 3.085032 22.232896 -4.577077 3.815852 19.018669 -2.957407 -21.965921 18.676452 14.281949 -4.213124 -12.955250 6.403885 10.883972 -37.072638 6.404037 12.532396 -35.641676 6.568018 -5.076570 -26.336316 -3.714863 -0.774010 12.738433 -1.607126 2.098257 33.777379 0.133540 1.928472 26.978117 0.740893 5.203358 -15.544018 -2.003453 -5.439033 11.625010 1.301569 -12.146824 24.057262 3.919079 -7.189985 16.353148 3.811725 17.739106 -14.551428 0.470251 -6.446620 4.923103 0.584554 -20.997666 15.128133 3.727837 -14.824850 11.204715 2.660226 8.974728 23.767416 1.186717 -8.808337 -19.635189 -3.810313 -23.766816 -40.508964 -12.222531 -13.453029 -27.680528 -8.369808 20.155451 12.858975 -2.453300 -10.369400 -10.297781 -4.438844 -32.537792 -21.976484 -7.516615 -22.275943 -16.000309 -4.691192 -4.906295 15.028750 4.976857 -1.468642 -21.553418 2.384746 0.780167 -38.479722 0.077579 1.044654 -28.891768 -0.341872 -0.000001 0.000000 0.000000 -0.000001 -0.000000 -0.000000 
0.729407 -3.179401 0.161156 0.000002 0.000001 -0.000001 -0.763650 -3.069282 0.627155 0.000001 -0.000001 -0.000000 1.340951 -2.180192 0.448406 0.000001 -0.000002 -0.000001 1.543487 -1.139778 0.169310 0.000000 0.000000 -0.000000 1.232514 -0.181456 0.434764 0.000000 0.000000 0.000000 -1.209938 -1.397271 0.329685 0.000000 0.000000 -0.000000 -1.000991 -0.375486 0.317435 -0.000000 -0.000000 -0.000000 -1.105798 -2.168939 0.159749 -0.000001 0.000001 0.000000 -0.131078 -1.134922 1.004056 -0.000001 0.000000 0.000000 -8.778872 -2.844257 -12.555135 -1.938837 13.313126 -7.986919 3.526616 22.296825 -4.473076 4.113858 19.101744 -2.919847 -23.442425 17.714009 16.388574 -6.203890 -12.889485 7.397634 8.265854 -36.132568 6.222967 10.592111 -34.732772 6.256981 -6.099311 -27.780381 -4.599487 -1.341598 12.323545 -2.069945 1.701678 34.212254 -0.127185 1.676723 27.480901 0.563217 4.973062 -14.351448 -1.736129 -5.103773 11.247370 1.387572 -11.297384 22.847941 3.640856 -6.677097 15.480301 3.582444 17.805289 -15.239409 0.079243 -7.155798 5.035846 0.189236 -22.233225 15.603144 3.708987 -15.672940 11.561041 2.660785 8.007468 23.885977 2.117952 -9.610152 -19.646998 -3.380833 -24.573520 -40.503978 -12.102693 -13.876685 -27.662983 -8.241332 19.623666 12.010955 -2.705953 -10.169756 -10.472525 -4.782235 -31.580585 -21.743219 -7.510640 -21.577119 -15.765654 -4.676396 -4.380350 14.129894 4.476378 -1.078572 -22.111423 2.138179 1.084083 -38.581211 -0.044338 1.220913 -28.820472 -0.444537 -0.000001 0.000000 0.000000 -0.000001 -0.000000 -0.000000 
